<svg xmlns="http://www.w3.org/2000/svg" fill="none" viewBox="0 0 110 110" height="110" width="110">
  <mask height="110" width="110" y="0" x="0" maskUnits="userSpaceOnUse" style="mask-type:alpha" id="mask0_1:1078">
    <rect fill="#C4C4C4" height="110" width="110"></rect>
  </mask>
  <g mask="url(#mask0_1:1078)">
    <path fill="#203342" d="M66 104L68.5 91.5C68.5 91.5 62.5 90 55 90C47.5 90 41 91.5 41 91.5L42.5 104.5L66 104Z"></path>
    <path fill="#FFB5A1" d="M45.0636 84.9503C45.0636 84.9503 46.6181 93.4917 44.7998 96.2199C45.7599 97.728 50.6929 103.222 55.2992 103.226C59.1387 103.229 62.593 98.1497 64.8078 95.6278C62.6167 94.0121 63.6188 84.8333 63.6188 84.8333L45.0636 84.9503Z" clip-rule="evenodd" fill-rule="evenodd"></path>
    <mask height="20" width="21" y="84" x="44" maskUnits="userSpaceOnUse" style="mask-type:alpha" id="mask1_1:1078">
      <path fill="white" d="M45.0636 84.9503C45.0636 84.9503 46.6181 93.4917 44.7998 96.2199C45.7599 97.728 50.6929 103.222 55.2992 103.226C59.1387 103.229 62.593 98.1497 64.8078 95.6278C62.6167 94.0121 63.6188 84.8333 63.6188 84.8333L45.0636 84.9503Z" clip-rule="evenodd" fill-rule="evenodd"></path>
    </mask>
    <g mask="url(#mask1_1:1078)">
      <g opacity="0.348749" style="mix-blend-mode:multiply">
        <path fill="#E89A85" d="M44.9998 85.5001C44.9998 85.5001 53.4713 94.3613 63.8875 91.6323C74.3037 88.9034 66.1802 80.5557 66.1802 80.5557L44.9998 85.5001Z" clip-rule="evenodd" fill-rule="evenodd"></path>
      </g>
    </g>
    <path fill="white" d="M45.5 93L40 96C41.1667 100.333 48.7557 108.5 56 108.5C64.5 108.5 66.5 101.667 69 97L64 93C62.5 95.6667 57.5 102 54.5 103C49.5 100 47 96 45.5 93Z"></path>
    <mask height="16" width="29" y="93" x="40" maskUnits="userSpaceOnUse" style="mask-type:alpha" id="mask2_1:1078">
      <path fill="white" d="M45.5 93L40 96C41.1667 100.333 48.7557 108.5 56 108.5C64.5 108.5 66.5 101.667 69 97L64 93C62.5 95.6667 57.5 102 54.5 103C49.5 100 47 96 45.5 93Z"></path>
    </mask>
    <g mask="url(#mask2_1:1078)">
      <path fill="#C4C4C4" d="M50.5 106.5L54.5 102.5H55.5L50.5 106.5Z"></path>
    </g>
    <path fill="#2A5271" d="M41 91.5C40.5 91.9999 32.5 99.5 32.5 99.5C28.5 101.333 22.5 102.9 16.5 104.5C10.5 106.1 8 117.833 6.5 120H103C103 116 99.7 109.5 96.5 107.5C93.3 105.5 81 101.5 75 99.5C75 99.5 69.5 93 68.5 91.5C68 93.5 67.5 95.5 67 96.956C63.9867 101.367 57.8 107.1 55 107.5C52.193 106.297 46.242 101.779 42.5 97.5C42 96.956 41.5 93.5 41 91.5Z"></path>
    <mask height="29" width="97" y="91" x="6" maskUnits="userSpaceOnUse" style="mask-type:alpha" id="mask3_1:1078">
      <path fill="#1B4A6D" d="M41 91.5C40.5 91.9999 32.5 99.5 32.5 99.5C28.5 101.333 22.5 102.9 16.5 104.5C10.5 106.1 8 117.833 6.5 120H103C103 116 99.7 109.5 96.5 107.5C93.3 105.5 81 101.5 75 99.5C75 99.5 69.5 93 68.5 91.5C68 93.5 67.5 95.5 67 96.956C63.9867 101.367 57.8 107.1 55 107.5C52.193 106.297 46.242 101.779 42.5 97.5C42 96.956 41.5 93.5 41 91.5Z"></path>
    </mask>
    <g mask="url(#mask3_1:1078)">
      <path fill="#1C3950" d="M56.5 117C69.6124 109.5 72.5 103 74 97.5L75.5 99C75.3333 104.833 68 113.5 56.5 117Z"></path>
      <path fill="#1C3950" d="M45.5 113.5C47.5 112.5 49 112.5 55 107.5C61 102.5 55 104 55 104L50.5 109L45.5 113.5Z"></path>
      <path fill="#1C3950" d="M49.5 115C41.9 111.4 35 101.833 34 98H33.5L32 99C32.3333 102.167 38.7 110.6 49.5 115Z"></path>
    </g>
    <path fill="#2A2A2A" d="M31.8949 71.4122C24.8861 65.3382 24.4193 45.2473 26.2878 36.8371C28.1563 28.4269 82.3558 34.9682 82.3558 34.9682C83.1345 38.2388 83.7571 41.9766 83.7571 53.1901C83.7571 60.3019 79.0856 71.4122 75.815 74.2155C72.5444 77.0189 38.9037 77.4861 31.8949 71.4122Z"></path>
    <path fill="#2A2A2A" d="M31.429 75.0315C30.0476 71.4396 32.208 63.0392 33.2982 60.5473C36.8802 60.2358 34.9712 59.0904 33.2982 63.818C30.3218 72.2281 32.8307 74.5642 33.2982 78.7693C33.6617 82.0399 31.2734 87.6467 30.0273 90.4501C31.1176 86.7122 33.7652 81.1055 31.429 75.0315Z"></path>
    <path fill="#FFB5A1" d="M32.3865 56.3824C32.3865 56.3824 29.6992 46.8456 22.9585 49.6287C16.2178 52.4118 21.8826 65.5808 31.0552 64.9801C40.2278 64.3793 32.3865 56.3824 32.3865 56.3824Z" clip-rule="evenodd" fill-rule="evenodd"></path>
    <path fill="#C26B6B" d="M23.64 54.2756C23.64 53.9799 23.8797 53.7402 24.1753 53.7402C26.128 53.7402 27.8994 55.0137 29.4921 57.4844C29.6523 57.7329 29.5807 58.0642 29.3322 58.2243C29.0837 58.3845 28.7524 58.313 28.5922 58.0645C28.1066 57.3112 27.6142 56.6918 27.1149 56.203C26.0355 56.4506 25.5119 56.8597 25.4221 57.4094C25.3744 57.7012 25.0993 57.8991 24.8075 57.8514C24.5157 57.8038 24.3178 57.5286 24.3655 57.2368C24.5048 56.3839 25.1036 55.7727 26.0973 55.3924C25.4669 55.0028 24.8262 54.8109 24.1753 54.8109C23.8797 54.8109 23.64 54.5712 23.64 54.2756Z" clip-rule="evenodd" fill-rule="evenodd"></path>
    <path fill="#FFB5A1" d="M77.3884 56.3824C77.3884 56.3824 79.9077 46.8456 86.2271 49.6287C92.5466 52.4118 87.2358 65.5808 78.6365 64.9801C70.0372 64.3793 77.3884 56.3824 77.3884 56.3824Z" clip-rule="evenodd" fill-rule="evenodd"></path>
    <path fill="#C26B6B" d="M84.5958 54.907C84.5958 54.6287 84.3702 54.4031 84.092 54.4031C82.2542 54.4031 80.5871 55.6017 79.0882 57.9269C78.9374 58.1608 79.0048 58.4726 79.2386 58.6233C79.4725 58.7741 79.7843 58.7067 79.9351 58.4729C80.3922 57.7638 80.8558 57.1807 81.3257 56.7206C82.3421 56.9536 82.8351 57.3387 82.9197 57.8562C82.9645 58.1308 83.2235 58.3171 83.4981 58.2722C83.7727 58.2274 83.959 57.9684 83.9141 57.6938C83.7829 56.8909 83.2192 56.3156 82.2837 55.9577C82.8768 55.5913 83.4796 55.4108 84.092 55.4108C84.3702 55.4108 84.5958 55.1852 84.5958 54.907Z" clip-rule="evenodd" fill-rule="evenodd"></path>
    <path fill="#FFD4C6" d="M28.5317 47.0208C27.2931 32.6778 37.9277 20.0513 52.2725 18.8333C68.1198 17.4878 81.461 30.5381 80.4649 46.4113L79.3776 63.7397C78.604 76.069 69.2957 86.1689 57.0704 87.9441L55.0839 88.2325L53.4815 88.0747C40.9671 86.8422 31.1088 76.8647 30.0269 64.3363L28.5317 47.0208Z" clip-rule="evenodd" fill-rule="evenodd"></path>
    <mask height="74" width="55" y="18" x="27" maskUnits="userSpaceOnUse" style="mask-type:alpha" id="mask4_1:1078">
      <path fill="white" d="M27.5899 47.2531C26.3555 32.8804 37.0103 20.23 51.3837 19.003L53.1244 18.8544C69.015 17.4978 82.3986 30.5792 81.4052 46.4966L80.1617 66.4222C79.3925 78.7475 70.0936 88.8484 57.8739 90.6324L55.1102 91.0359L52.7322 90.8004C40.219 89.5614 30.3663 79.5795 29.2903 67.0513L27.5899 47.2531Z" clip-rule="evenodd" fill-rule="evenodd"></path>
    </mask>
    <g mask="url(#mask4_1:1078)">
      <ellipse fill="#FFA2A2" ry="1.86892" rx="3.73784" cy="63.9366" cx="71.142" opacity="0.624907"></ellipse>
      <ellipse fill="#FFA2A2" ry="1.86892" rx="3.73784" cy="63.9366" cx="40.3059" opacity="0.624907"></ellipse>
      <rect fill="#835B5B" rx="2.91457" height="8.32734" width="5.82914" y="52.694" x="64.9663"></rect>
      <rect fill="#835B5B" rx="2.91457" height="8.32734" width="5.82914" y="52.694" x="39.9843"></rect>
      <path fill="#835B5B" d="M60.8628 51.457C60.8628 51.457 67.0328 45.1431 74.4018 50.0982C72.7363 50.0981 60.8628 51.457 60.8628 51.457Z" clip-rule="evenodd" fill-rule="evenodd"></path>
      <path fill="#835B5B" d="M49.3391 51.457C49.3391 51.457 43.1691 45.1431 35.8001 50.0982C37.4656 50.0981 49.3391 51.457 49.3391 51.457Z" clip-rule="evenodd" fill-rule="evenodd"></path>
      <path stroke-linecap="round" stroke-width="1.49892" stroke="#D97B7B" d="M54.1734 55.4233C54.1734 55.4233 51.7609 65.5463 51.9009 66.3356C52.0409 67.1249 57.0327 66.3356 57.0327 66.3356"></path>
    </g>
    <path fill="#986C29" d="M79.5709 10.9515C60.6665 10.4669 36.6967 15.0736 25.5338 17.398C25.5181 18.0119 26.3321 18.3399 32.1093 17.5665C36.2543 16.2908 69.2967 10.6882 79.5237 12.7929C79.5315 12.486 82.424 11.9459 79.5709 10.9515Z"></path>
    <path fill="#222222" d="M63.222 7.88266C57.1472 5.07934 49.2051 5.4196 44.532 8.81713C41.9614 10.686 41.2621 13.0221 43.5982 14.8911C41.7293 19.5634 46.4018 21.4323 49.2051 21.4323C51.3855 22.6782 56.2135 22.834 59.0169 21.4323C63.222 22.3667 66.9595 20.4979 65.5578 15.8256C68.6404 13.0222 66.6214 9.9226 63.222 7.88266Z"></path>
    <mask height="17" width="26" y="6" x="42" maskUnits="userSpaceOnUse" style="mask-type:alpha" id="mask5_1:1078">
      <path fill="#222222" d="M63.2224 7.88266C57.1475 5.07934 49.2055 5.4196 44.5324 8.81713C41.9618 10.686 41.2625 13.0221 43.5986 14.8911C41.7297 19.5634 46.4022 21.4323 49.2055 21.4323C51.3859 22.6782 56.2139 22.834 59.0173 21.4323C63.2224 22.3667 66.9599 20.4979 65.5582 15.8256C68.6408 13.0222 66.6218 9.9226 63.2224 7.88266Z"></path>
    </mask>
    <g mask="url(#mask5_1:1078)">
      <path fill="#181818" d="M54.5004 13C64.0004 12 62.0004 6.4375 57.5004 5.5L69.5004 8C70.0004 12.8333 71.0004 22.7 71.0004 23.5C71.0004 24.3 52.667 20.1667 43.5004 18C44.5004 15 60.0004 16 54.5004 13Z"></path>
    </g>
    <path fill="#2B2B2B" d="M79.8825 50.5348L76.5 52.5C76.7583 51.9537 77 45 76.5 40.5C75.7819 41.5 74 42.5 71.5 43C72 38 71.5 33.0993 69.2258 30.4439C69.2258 30.4439 65.5 34.5 64.5 34.5C64.5 33.0993 63.5 31 62 31C59 33.5 55.2577 35.5 54 35.5C51 35 47 32 45.5 31C44 31 42.5 33.0993 43 35C41 35 37.4672 33.5665 37 33.0993C36 35 36 41.5 37 43C34.5 44 33 43.5 33 43.5C32.606 45.5189 32.9607 48.382 33.5 50L30.4942 48.9851C30.4942 48.9851 30.3132 48.5179 31.4287 53.6574C32.2384 56.7918 32.8304 62.5348 31.4287 66.7398C31.4287 57.3952 29.0925 54.1246 29.0925 54.1246C29.0925 54.1246 26.9907 51.3212 26.2898 45.7145C23.0193 19.5496 44.6016 15.8282 55.2577 16.2789C78.4245 17.259 83.1259 30.4439 83.1259 42.6945C83.7593 51.5149 81.5814 54.9451 79.8825 57.3952V50.5348Z"></path>
    <path fill="#2A2A2A" d="M79.8638 71.2023C78.7387 60.8497 79.137 56.3279 80.4867 50.8541H81.4215C81.1099 54.186 79.3127 58.013 80.4867 66.9184C80.9521 70.4482 81.4215 80.1269 78.6182 82.6258C80.3625 79.7699 80.2792 73.2252 79.8638 71.2023Z"></path>
    <path fill="#2A2A2A" d="M29.4039 63.7085C30.8102 55.0333 30.3124 51.2441 28.6252 46.6572L26.2886 46.1818C26.6781 48.9738 30.0928 52.6562 28.6252 60.1187C28.0435 63.0766 27.4567 71.1871 30.9609 73.2811C28.7805 70.888 28.8846 65.4036 29.4039 63.7085Z"></path>
    <path fill="#2A2A2A" d="M82.1646 67.8938C80.0534 60.8868 79.6869 57.7168 79.7853 53.7725L80.3692 53.6574C80.6278 55.9955 80.026 58.8582 81.9709 64.8603C82.7418 67.2393 84.3518 73.8618 82.9408 75.9318C83.6418 73.7458 82.6993 69.2388 82.1646 67.8938Z"></path>
    <path stroke-linecap="round" stroke-width="1.40415" stroke="#DA7B7B" d="M51 73.4096C51 73.4096 55.8566 73.2406 58.0714 71"></path>
  </g>
</svg>
